<svg width="527" height="525" viewBox="0 0 527 525" fill="none" xmlns="http://www.w3.org/2000/svg">
<path d="M437.019 74.982C388.667 26.628 324.379 0 256 0C187.621 0 123.333 26.628 74.981 74.982C26.628 123.333 0 187.621 0 256C0 324.379 26.628 388.667 74.981 437.019C123.333 485.372 187.621 512 256 512C324.379 512 388.667 485.372 437.019 437.018C485.372 388.667 512 324.379 512 256C512 187.621 485.372 123.333 437.019 74.982ZM256 495.832C123.756 495.832 16.168 388.244 16.168 256C16.168 123.756 123.756 16.168 256 16.168C388.244 16.168 495.832 123.756 495.832 256C495.832 388.244 388.244 495.832 256 495.832Z" fill="black"/>
<g clip-path="url(#clip0)">
<path d="M196.561 115.862C202.427 109.204 206 100.457 206 90.8823C206 70.0863 189.178 53.1683 168.5 53.1683C147.822 53.1683 131 70.0863 131 90.8823C131 100.458 134.573 109.204 140.439 115.863C122.89 125.774 111 144.667 111 166.31C111 171.864 115.477 176.367 121 176.367H216C221.523 176.367 226 171.864 226 166.31C226 144.667 214.11 125.774 196.561 115.862V115.862ZM151 90.8823C151 81.1782 158.851 73.2824 168.5 73.2824C178.149 73.2824 186 81.1782 186 90.8823C186 100.586 178.149 108.482 168.5 108.482C158.851 108.482 151 100.586 151 90.8823ZM132.354 156.253C136.741 140.324 151.285 128.596 168.5 128.596C185.715 128.596 200.259 140.324 204.646 156.253H132.354Z" fill="black"/>
<path d="M346 153.742C351.523 153.742 356 149.239 356 143.685C356 138.13 351.523 133.628 346 133.628C340.477 133.628 336 138.13 336 143.685C336 149.239 340.477 153.742 346 153.742Z" fill="black"/>
<path d="M256 153.742C261.523 153.742 266 149.239 266 143.685C266 138.13 261.523 133.628 256 133.628C250.477 133.628 246 138.13 246 143.685C246 149.239 250.477 153.742 256 153.742Z" fill="black"/>
<path d="M301 153.742C306.523 153.742 311 149.239 311 143.685C311 138.13 306.523 133.628 301 133.628C295.477 133.628 291 138.13 291 143.685C291 149.239 295.477 153.742 301 153.742Z" fill="black"/>
<path d="M381 93.3965H256C250.477 93.3965 246 97.9001 246 103.454C246 109.007 250.477 113.511 256 113.511H381C386.523 113.511 391 109.007 391 103.454C391 97.9001 386.523 93.3965 381 93.3965Z" fill="black"/>
<path d="M256 73.2824H318.5C324.023 73.2824 328.5 68.7789 328.5 63.2254C328.5 57.6719 324.023 53.1683 318.5 53.1683H256C250.477 53.1683 246 57.6719 246 63.2254C246 68.7789 250.477 73.2824 256 73.2824Z" fill="black"/>
<path d="M256 260.595H296C301.523 260.595 306 256.091 306 250.538C306 244.984 301.523 240.481 296 240.481H256C250.477 240.481 246 244.984 246 250.538C246 256.091 250.477 260.595 256 260.595Z" fill="black"/>
<path d="M381 240.481H341C335.477 240.481 331 244.984 331 250.538C331 256.091 335.477 260.595 341 260.595H381C386.523 260.595 391 256.091 391 250.538C391 244.984 386.523 240.481 381 240.481Z" fill="black"/>
<path d="M318.5 200.253H256C250.477 200.253 246 204.756 246 210.31C246 215.863 250.477 220.367 256 220.367H318.5C324.023 220.367 328.5 215.863 328.5 210.31C328.5 204.756 324.023 200.253 318.5 200.253Z" fill="black"/>
<path d="M256 348.594H296C301.523 348.594 306 344.09 306 338.537C306 332.983 301.523 328.48 296 328.48H256C250.477 328.48 246 332.983 246 338.537C246 344.09 250.477 348.594 256 348.594Z" fill="black"/>
<path d="M381 328.48H341C335.477 328.48 331 332.983 331 338.537C331 344.09 335.477 348.594 341 348.594H381C386.523 348.594 391 344.09 391 338.537C391 332.983 386.523 328.48 381 328.48Z" fill="black"/>
<path d="M318.5 288.252H256C250.477 288.252 246 292.755 246 298.309C246 303.862 250.477 308.366 256 308.366H318.5C324.023 308.366 328.5 303.862 328.5 298.309C328.5 292.755 324.023 288.252 318.5 288.252Z" fill="black"/>
<path d="M381 416.479H341C335.477 416.479 331 420.983 331 426.536C331 432.09 335.477 436.593 341 436.593H381C386.523 436.593 391 432.09 391 426.536C391 420.983 386.523 416.479 381 416.479Z" fill="black"/>
<path d="M296 416.479H256C250.477 416.479 246 420.983 246 426.536C246 432.09 250.477 436.593 256 436.593H296C301.523 436.593 306 432.09 306 426.536C306 420.983 301.523 416.479 296 416.479Z" fill="black"/>
<path d="M318.5 376.251H256C250.477 376.251 246 380.754 246 386.308C246 391.861 250.477 396.365 256 396.365H318.5C324.023 396.365 328.5 391.861 328.5 386.308C328.5 380.754 324.023 376.251 318.5 376.251Z" fill="black"/>
<path d="M170.308 260.076C172.191 262.781 175.789 264.337 179.029 264.337C182.649 263.95 186.304 261.586 187.717 258.211L207.717 210.44C209.86 205.321 207.471 199.424 202.381 197.268C197.29 195.113 191.427 197.515 189.284 202.634L176.31 233.623L169.193 223.398C166.026 218.848 159.791 217.741 155.266 220.926C150.742 224.111 149.641 230.382 152.808 234.932L170.308 260.076Z" fill="black"/>
<path d="M202.38 285.268C197.289 283.114 191.426 285.515 189.283 290.634L176.309 321.623L169.192 311.398C166.025 306.848 159.79 305.74 155.265 308.926C150.741 312.111 149.64 318.382 152.807 322.932L170.307 348.075C172.19 350.78 175.788 352.336 179.028 352.336C182.648 351.949 186.303 349.585 187.716 346.21L207.716 298.44C209.859 293.321 207.471 287.423 202.38 285.268V285.268Z" fill="black"/>
<path d="M179.75 376.251C163.208 376.251 149.75 389.786 149.75 406.422C149.75 423.058 163.208 436.593 179.75 436.593C196.292 436.593 209.75 423.058 209.75 406.422C209.75 389.786 196.292 376.251 179.75 376.251ZM179.75 416.479C174.236 416.479 169.75 411.967 169.75 406.422C169.75 400.877 174.236 396.365 179.75 396.365C185.264 396.365 189.75 400.877 189.75 406.422C189.75 411.967 185.264 416.479 179.75 416.479Z" fill="black"/>
</g>
<defs>
<clipPath id="clip0">
<rect width="512" height="512" fill="white" transform="translate(15 13)"/>
</clipPath>
</defs>
</svg>
