<svg width="61" height="61" viewBox="0 0 61 61" fill="none" xmlns="http://www.w3.org/2000/svg">
<path d="M55.4616 1.79413H5.53837C3.47427 1.79413 1.79411 3.47428 1.79411 5.53838V55.4616C1.79411 57.5257 3.47427 59.2059 5.53837 59.2059H55.4616C57.5257 59.2059 59.2059 57.5257 59.2059 55.4616V5.53838C59.2059 3.47428 57.5257 1.79413 55.4616 1.79413ZM56.7097 55.4616C56.7097 56.1503 56.1491 56.7097 55.4616 56.7097H5.53837C4.85093 56.7097 4.29027 56.1503 4.29027 55.4616V5.53838C4.29027 4.85095 4.85093 4.29028 5.53837 4.29028H55.4616C56.1491 4.29028 56.7097 4.85095 56.7097 5.53838V55.4616Z" fill="#4E4E4E"/>
<path d="M35.492 11.7774H18.0189C17.3302 11.7774 16.7708 12.3368 16.7708 13.0255V47.9718C16.7708 48.6622 17.3302 49.2198 18.0189 49.2198H35.492C40.3093 49.2198 44.2286 45.2995 44.2286 40.4834V37.987C44.2286 34.8132 42.5278 32.0289 39.9889 30.4986C42.5278 28.9684 44.2286 26.1839 44.2286 23.0101V20.5139C44.2286 15.6966 40.3093 11.7774 35.492 11.7774ZM41.7324 37.987V40.4834C41.7324 43.9241 38.9327 46.7237 35.492 46.7237H19.267V31.7467H35.492C38.9327 31.7467 41.7324 34.5463 41.7324 37.987ZM41.7324 23.0101C41.7324 26.4509 38.9327 29.2506 35.492 29.2506H19.267V14.2736H35.492C38.9327 14.2736 41.7324 17.0732 41.7324 20.5139V23.0101Z" fill="#4E4E4E" stroke="#4E4E4E" stroke-width="2"/>
<path d="M59.2059 1.79413H1.79411V59.2059H59.2059V1.79413Z" stroke="#4E4E4E" stroke-width="2" stroke-linejoin="round"/>
</svg>
