<svg width="66" height="66" viewBox="0 0 66 66" fill="none" xmlns="http://www.w3.org/2000/svg">
<g clip-path="url(#clip0)">
<path d="M65.7266 29.1586L40.8014 4.23329C39.7443 3.17111 38.352 2.64001 36.96 2.64001C35.5678 2.64001 34.1755 3.17111 33.1186 4.23329L28.1891 9.16267L34.289 15.2625C36.3154 14.0714 38.9554 14.3292 40.693 16.0669C42.4307 17.8045 42.6833 20.4446 41.4924 22.4659L47.489 28.4625C49.5154 27.2714 52.1554 27.5292 53.893 29.267C55.9555 31.3295 55.9555 34.6707 53.893 36.7332C51.8305 38.7957 48.4893 38.7957 46.4268 36.7332C44.6891 34.9954 44.4314 32.3554 45.6225 30.329L39.6257 24.3324C39.1978 24.585 38.7491 24.7707 38.28 24.8892V41.1057C40.5539 41.6935 42.24 43.7404 42.24 46.2C42.24 49.1185 39.8783 51.48 36.96 51.48C34.0415 51.48 31.68 49.1185 31.68 46.2C31.68 43.7404 33.3661 41.6935 35.64 41.1057V24.8892C34.7582 24.6624 33.9178 24.224 33.2268 23.5332C31.4891 21.7954 31.2365 19.1554 32.4276 17.1342L26.3226 11.0292L8.19324 29.1586C6.06887 31.2778 6.06887 34.7223 8.19324 36.8414L33.1186 61.7667C34.1755 62.8289 35.5678 63.36 36.96 63.36C38.352 63.36 39.7443 62.8289 40.8014 61.7667L65.7266 36.8414C67.8511 34.7223 67.8511 31.2778 65.7266 29.1586Z" fill="#4E4E4E"/>
</g>
<defs>
<clipPath id="clip0">
<rect width="66" height="66" fill="white"/>
</clipPath>
</defs>
</svg>
