<svg width="30" height="30" viewBox="0 0 30 30" fill="none" xmlns="http://www.w3.org/2000/svg">
<g clip-path="url(#clip0)">
<path d="M29.8851 29.0221C29.3712 28.2976 28.5387 27.6964 27.6573 27.0598C26.7082 26.3756 25.7335 25.6718 25.2452 24.854C27.0976 24.467 29.4414 23.7657 29.5543 23.7321C29.7557 23.6717 29.9138 23.5136 29.9736 23.3122C30.034 23.1107 29.9888 22.8923 29.8533 22.7311C29.7325 22.5877 26.895 19.2582 22.3149 17.6249C22.1129 17.2203 21.8877 16.7015 21.6259 16.1015C19.7814 11.8695 15.9521 3.08658 5.84897 1.90492C5.0439 1.36112 2.93395 0.00860596 1.87499 0.00860596C0.560915 0.00860596 0 0.56952 0 1.88359C0 2.52326 0.520602 3.27091 1.36962 4.4385C1.78464 5.0092 2.47926 5.96439 2.50001 6.25859C2.50001 7.28151 3.68652 10.5933 4.87978 12.0099C4.84562 12.0825 4.8114 12.1539 4.77782 12.2247C4.24925 13.3386 3.74998 14.3908 3.74998 16.8835C3.74998 20.166 5.32222 21.8835 6.87494 21.8835C7.83868 21.8835 8.31839 20.7897 8.54913 19.5092C9.40547 21.2468 10.8044 23.5106 12.7642 24.8943C13.0468 25.092 13.4368 25.0249 13.6358 24.7441C13.8348 24.4615 13.7676 24.0721 13.4856 23.8725C10.3777 21.6789 8.73528 16.7394 8.71882 16.6893C8.6236 16.3976 8.32454 16.2169 8.02665 16.2663C7.72331 16.3146 7.4999 16.5764 7.4999 16.8834C7.4999 18.5997 7.17277 20.4283 6.87488 20.6334C5.97342 20.6334 4.99989 19.1996 4.99989 16.8834C4.99989 14.6721 5.40026 13.8286 5.90686 12.7605C6.00149 12.5609 6.0991 12.3558 6.19619 12.1373C6.30787 11.8853 6.24196 11.5898 6.03325 11.4098C5.07015 10.5804 3.74998 7.08862 3.74998 6.25853C3.74998 5.61886 3.22938 4.87121 2.38036 3.70362C1.96534 3.13292 1.27072 2.17773 1.24997 1.88354C1.24997 1.25852 1.24997 1.25852 1.87499 1.25852C2.38159 1.25852 4.03257 2.17463 5.27159 3.02423C5.35643 3.08224 5.45469 3.11886 5.55782 3.12982C15.0567 4.16007 18.5851 12.2533 20.4802 16.6014C20.7994 17.3339 21.0753 17.9668 21.3243 18.4294C21.3994 18.5692 21.5245 18.6748 21.6741 18.7254C24.7936 19.7826 27.1196 21.7582 28.2097 22.8191C27.1452 23.1175 25.4454 23.5716 24.2723 23.7669C24.1002 23.7956 23.9476 23.8951 23.8524 24.041C23.7566 24.1869 23.7261 24.3657 23.7688 24.5347C24.1527 26.0728 25.6261 27.1361 26.9255 28.0736C27.7208 28.6473 28.4715 29.1893 28.8646 29.7447C28.9866 29.9168 29.1795 30.0084 29.3755 30.0084C29.5005 30.0084 29.6263 29.9712 29.7362 29.8936C30.0175 29.6941 30.0847 29.3041 29.8851 29.0221Z" fill="#4E4E4E"/>
<path d="M5.625 5.00027C5.625 5.34574 5.90455 5.62529 6.25002 5.62529C6.59484 5.62529 6.87504 5.90542 6.87504 6.25031C6.87504 6.59578 7.15459 6.87533 7.50006 6.87533C7.84553 6.87533 8.12508 6.59578 8.12508 6.25031C8.12508 5.21636 7.28402 4.37531 6.25008 4.37531C5.90455 4.37525 5.625 4.6548 5.625 5.00027Z" fill="#4E4E4E"/>
<path d="M29.8851 29.0221C29.3712 28.2976 28.5387 27.6964 27.6573 27.0598C26.7082 26.3756 25.7335 25.6718 25.2452 24.854C27.0976 24.467 29.4414 23.7657 29.5543 23.7321C29.7557 23.6717 29.9138 23.5136 29.9736 23.3122C30.034 23.1107 29.9888 22.8923 29.8533 22.7311C29.7325 22.5877 26.895 19.2582 22.3149 17.6249C22.1129 17.2203 21.8877 16.7015 21.6259 16.1015C19.7814 11.8695 15.9521 3.08658 5.84897 1.90492C5.0439 1.36112 2.93395 0.00860596 1.87499 0.00860596C0.560915 0.00860596 0 0.56952 0 1.88359C0 2.52326 0.520602 3.27091 1.36962 4.4385C1.78464 5.0092 2.47926 5.96439 2.50001 6.25859C2.50001 7.28151 3.68652 10.5933 4.87978 12.0099C4.84562 12.0825 4.8114 12.1539 4.77782 12.2247C4.24925 13.3386 3.74998 14.3908 3.74998 16.8835C3.74998 20.166 5.32222 21.8835 6.87494 21.8835C7.83868 21.8835 8.31839 20.7897 8.54913 19.5092C9.40547 21.2468 10.8044 23.5106 12.7642 24.8943C13.0468 25.092 13.4368 25.0249 13.6358 24.7441C13.8348 24.4615 13.7676 24.0721 13.4856 23.8725C10.3777 21.6789 8.73528 16.7394 8.71882 16.6893C8.6236 16.3976 8.32454 16.2169 8.02665 16.2663C7.72331 16.3146 7.4999 16.5764 7.4999 16.8834C7.4999 18.5997 7.17277 20.4283 6.87488 20.6334C5.97342 20.6334 4.99989 19.1996 4.99989 16.8834C4.99989 14.6721 5.40026 13.8286 5.90686 12.7605C6.00149 12.5609 6.0991 12.3558 6.19619 12.1373C6.30787 11.8853 6.24196 11.5898 6.03325 11.4098C5.07015 10.5804 3.74998 7.08862 3.74998 6.25853C3.74998 5.61886 3.22938 4.87121 2.38036 3.70362C1.96534 3.13292 1.27072 2.17773 1.24997 1.88354C1.24997 1.25852 1.24997 1.25852 1.87499 1.25852C2.38159 1.25852 4.03257 2.17463 5.27159 3.02423C5.35643 3.08224 5.45469 3.11886 5.55782 3.12982C15.0567 4.16007 18.5851 12.2533 20.4802 16.6014C20.7994 17.3339 21.0753 17.9668 21.3243 18.4294C21.3994 18.5692 21.5245 18.6748 21.6741 18.7254C24.7936 19.7826 27.1196 21.7582 28.2097 22.8191C27.1452 23.1175 25.4454 23.5716 24.2723 23.7669C24.1002 23.7956 23.9476 23.8951 23.8524 24.041C23.7566 24.1869 23.7261 24.3657 23.7688 24.5347C24.1527 26.0728 25.6261 27.1361 26.9255 28.0736C27.7208 28.6473 28.4715 29.1893 28.8646 29.7447C28.9866 29.9168 29.1795 30.0084 29.3755 30.0084C29.5005 30.0084 29.6263 29.9712 29.7362 29.8936C30.0175 29.6941 30.0847 29.3041 29.8851 29.0221ZM5.62497 5.00856C5.62497 5.35402 5.90452 5.63357 6.24998 5.63357C6.59481 5.63357 6.875 5.91371 6.875 6.25859C6.875 6.60405 7.15455 6.8836 7.50002 6.8836C7.84548 6.8836 8.12503 6.60405 8.12503 6.25859C8.12503 5.22465 7.28398 4.3836 6.25004 4.3836C5.90452 4.38354 5.62497 4.66309 5.62497 5.00856Z" fill="url(#paint0_linear)"/>
</g>
<defs>
<linearGradient id="paint0_linear" x1="-2.81553" y1="7.27019" x2="32.6631" y2="23.8113" gradientUnits="userSpaceOnUse">
<stop stop-color="white" stop-opacity="0.62"/>
<stop offset="1" stop-color="white" stop-opacity="0"/>
</linearGradient>
<clipPath id="clip0">
<rect width="30" height="30" fill="white"/>
</clipPath>
</defs>
</svg>
