<svg width="82" height="82" viewBox="0 0 82 82" fill="none" xmlns="http://www.w3.org/2000/svg">
<path d="M58.9375 68.1875H23.0625C17.4011 68.1875 12.8125 63.5989 12.8125 57.9375V22.0625C12.8125 16.4011 17.4011 11.8125 23.0625 11.8125H58.9375C64.5989 11.8125 69.1875 16.4011 69.1875 22.0625V57.9375C69.1875 63.5989 64.5989 68.1875 58.9375 68.1875Z" stroke="#4E4E4E" stroke-width="3" stroke-miterlimit="10" stroke-linejoin="round"/>
<path d="M29.8958 40.8542H32.4583C36.2321 40.8542 39.2917 37.7946 39.2917 34.0208C39.2917 30.2472 36.2321 27.1875 32.4583 27.1875H28.1875V52.8125" stroke="#4E4E4E" stroke-width="3" stroke-miterlimit="10" stroke-linecap="round" stroke-linejoin="round"/>
<path d="M55.1263 40.6362C54.6359 39.3498 53.3906 38.4375 51.9333 38.4375H49.6271C47.5037 38.4375 45.7833 40.1577 45.7833 42.2812C45.7833 44.4048 47.5037 46.125 49.6271 46.125H51.6771C53.8006 46.125 55.5208 47.8452 55.5208 49.9687C55.5208 52.0923 53.8006 53.8125 51.6771 53.8125H48.0042C47.1398 53.8125 46.3505 53.4913 45.7492 52.9634C45.6244 52.8542 45.5066 52.7346 45.3989 52.6064" stroke="#4E4E4E" stroke-width="3" stroke-miterlimit="10" stroke-linecap="round" stroke-linejoin="round"/>
</svg>
