<svg width="38" height="38" viewBox="0 0 38 38" fill="none" xmlns="http://www.w3.org/2000/svg">
<path d="M13.8542 35.2292C10.7936 35.2292 8.3125 32.7481 8.3125 29.6875C8.3125 26.6269 10.7936 24.1458 13.8542 24.1458H19.3958V29.6875C19.3958 32.7481 16.9148 35.2292 13.8542 35.2292Z" stroke="#4E4E4E" stroke-width="3" stroke-miterlimit="10" stroke-linecap="round" stroke-linejoin="round"/>
<path d="M25.7291 25.3334C28.5711 25.3334 30.875 23.0295 30.875 20.1875C30.875 17.3456 28.5711 15.0417 25.7291 15.0417C22.8872 15.0417 20.5833 17.3456 20.5833 20.1875C20.5833 23.0295 22.8872 25.3334 25.7291 25.3334Z" fill="#4E4E4E"/>
<path d="M25.3333 13.8542C28.1754 13.8542 30.4791 11.5504 30.4791 8.70834C30.4791 5.86625 28.1754 3.5625 25.3333 3.5625H19.3958V13.8542H25.3333Z" stroke="#4E4E4E" stroke-width="3" stroke-miterlimit="10" stroke-linecap="round" stroke-linejoin="round"/>
<path d="M13.4583 3.5625C10.6163 3.5625 8.3125 5.86625 8.3125 8.70834C8.3125 11.5504 10.6163 13.8542 13.4583 13.8542H19.3958V3.5625H13.4583Z" stroke="#4E4E4E" stroke-width="3" stroke-miterlimit="10" stroke-linecap="round" stroke-linejoin="round"/>
<path d="M13.4583 13.8542C10.6163 13.8542 8.3125 16.1579 8.3125 19C8.3125 21.8421 10.6163 24.1459 13.4583 24.1459H19.3958V13.8542H13.4583Z" stroke="#4E4E4E" stroke-width="3" stroke-miterlimit="10" stroke-linecap="round" stroke-linejoin="round"/>
<rect width="38" height="38" stroke="black"/>
</svg>
