<svg width="34" height="34" viewBox="0 0 34 34" fill="none" xmlns="http://www.w3.org/2000/svg">
<path d="M30.913 1H3.08696C1.93648 1 1 1.93648 1 3.08696V30.913C1 32.0635 1.93648 33 3.08696 33H30.913C32.0635 33 33 32.0635 33 30.913V3.08696C33 1.93648 32.0635 1 30.913 1ZM31.6087 30.913C31.6087 31.2969 31.2962 31.6087 30.913 31.6087H3.08696C2.7038 31.6087 2.3913 31.2969 2.3913 30.913V3.08696C2.3913 2.7038 2.7038 2.3913 3.08696 2.3913H30.913C31.2962 2.3913 31.6087 2.7038 31.6087 3.08696V30.913Z" fill="#4E4E4E"/>
<path d="M19.7824 6.56445H10.0433C9.65948 6.56445 9.34766 6.87627 9.34766 7.26011V26.7384C9.34766 27.1232 9.65948 27.434 10.0433 27.434H19.7824C22.4675 27.434 24.652 25.2489 24.652 22.5645V21.1731C24.652 19.4041 23.704 17.8522 22.2889 16.9992C23.704 16.1463 24.652 14.5943 24.652 12.8253V11.434C24.652 8.7489 22.4675 6.56445 19.7824 6.56445ZM23.2607 21.1731V22.5645C23.2607 24.4823 21.7002 26.0427 19.7824 26.0427H10.739V17.6949H19.7824C21.7002 17.6949 23.2607 19.2553 23.2607 21.1731ZM23.2607 12.8253C23.2607 14.7431 21.7002 16.3036 19.7824 16.3036H10.739V7.95576H19.7824C21.7002 7.95576 23.2607 9.51622 23.2607 11.434V12.8253Z" fill="#4E4E4E" stroke="#4E4E4E" stroke-width="2"/>
<rect x="1" y="1" width="32" height="32" stroke="#4E4E4E" stroke-width="2" stroke-linejoin="round"/>
</svg>
