<svg width="46" height="46" viewBox="0 0 46 46" fill="none" xmlns="http://www.w3.org/2000/svg">
<path d="M33.0625 38.8125H12.9375C9.76158 38.8125 7.1875 36.2384 7.1875 33.0625V12.9375C7.1875 9.76158 9.76158 7.1875 12.9375 7.1875H33.0625C36.2384 7.1875 38.8125 9.76158 38.8125 12.9375V33.0625C38.8125 36.2384 36.2384 38.8125 33.0625 38.8125Z" stroke="#4E4E4E" stroke-width="3" stroke-miterlimit="10" stroke-linejoin="round"/>
<path d="M16.7708 23.4792H18.2083C20.3253 23.4792 22.0417 21.7628 22.0417 19.6458C22.0417 17.5289 20.3253 15.8125 18.2083 15.8125H15.8125V30.1875" stroke="#4E4E4E" stroke-width="3" stroke-miterlimit="10" stroke-linecap="round" stroke-linejoin="round"/>
<path d="M30.9245 22.7959C30.6494 22.0743 29.9508 21.5625 29.1333 21.5625H27.8396C26.6484 21.5625 25.6833 22.5275 25.6833 23.7187C25.6833 24.91 26.6484 25.875 27.8396 25.875H28.9896C30.1808 25.875 31.1458 26.84 31.1458 28.0312C31.1458 29.2225 30.1808 30.1875 28.9896 30.1875H26.9292C26.4443 30.1875 26.0015 30.0073 25.6642 29.7112C25.5942 29.6499 25.5281 29.5828 25.4677 29.5109" stroke="#4E4E4E" stroke-width="3" stroke-miterlimit="10" stroke-linecap="round" stroke-linejoin="round"/>
<rect width="46" height="46" stroke="#CCE3DE"/>
</svg>
