<svg width="40" height="40" viewBox="0 0 40 40" fill="none" xmlns="http://www.w3.org/2000/svg">
<path d="M22.0833 7.91666H31.25C33.0908 7.91666 34.5833 9.40916 34.5833 11.25V29.5833C34.5833 31.4242 33.0908 32.9167 31.25 32.9167H22.0833" stroke="#4E4E4E" stroke-width="3" stroke-miterlimit="10" stroke-linejoin="round"/>
<path d="M22.0833 33.7167C22.0833 34.7683 21.1208 35.5575 20.09 35.3508L7.42669 32.8183C6.25752 32.585 5.41669 31.5592 5.41669 30.3675V9.6325C5.41669 8.44084 6.25752 7.415 7.42669 7.18083L20.09 4.64834C21.1208 4.4425 22.0833 5.23167 22.0833 6.28334V33.7167Z" stroke="#4E4E4E" stroke-width="3" stroke-miterlimit="10" stroke-linejoin="round"/>
<path d="M26.25 13.75H29.5833" stroke="#4E4E4E" stroke-width="3" stroke-miterlimit="10" stroke-linecap="round" stroke-linejoin="round"/>
<path d="M26.25 20.4167H29.5833" stroke="#4E4E4E" stroke-width="3" stroke-miterlimit="10" stroke-linecap="round" stroke-linejoin="round"/>
<path d="M26.25 27.0833H29.5833" stroke="#4E4E4E" stroke-width="3" stroke-miterlimit="10" stroke-linecap="round" stroke-linejoin="round"/>
<path d="M16.6333 25.965C16.2208 25.965 15.8167 25.76 15.5775 25.3858L9.74417 16.2192C9.37417 15.6367 9.54583 14.8642 10.1275 14.4934C10.7092 14.1242 11.4825 14.2934 11.8533 14.8767L17.6867 24.0433C18.0567 24.6258 17.885 25.3983 17.3033 25.7692C17.095 25.9025 16.8633 25.965 16.6333 25.965Z" fill="#4E4E4E"/>
<path d="M10.7983 25.965C10.5683 25.965 10.3358 25.9017 10.1275 25.77C9.54583 25.3992 9.37417 24.6267 9.74417 24.0442L15.5775 14.8775C15.9492 14.2942 16.7225 14.1242 17.3033 14.4942C17.885 14.865 18.0567 15.6375 17.6867 16.22L11.8533 25.3867C11.615 25.7608 11.2108 25.965 10.7983 25.965Z" fill="#4E4E4E"/>
<rect width="40" height="40" stroke="black"/>
</svg>
