<svg width="59" height="59" viewBox="0 0 59 59" fill="none" xmlns="http://www.w3.org/2000/svg">
<g clip-path="url(#clip0)">
<path d="M58.774 57.0686C57.7634 55.6437 56.1261 54.4613 54.3927 53.2094C52.5261 51.8638 50.6092 50.4796 49.6489 48.8713C53.2919 48.1102 57.9014 46.731 58.1235 46.6649C58.5195 46.5461 58.8305 46.2352 58.9481 45.8391C59.0669 45.4428 58.978 45.0133 58.7115 44.6962C58.4739 44.4142 52.8935 37.8662 43.886 34.6541C43.4887 33.8583 43.0458 32.838 42.5309 31.658C38.9034 23.3351 31.3725 6.06202 11.503 3.73809C9.91967 2.66861 5.7701 0.00866699 3.68748 0.00866699C1.10313 0.00866699 0 1.1118 0 3.69614C0 4.95415 1.02385 6.42453 2.69359 8.72079C3.50979 9.84317 4.87588 11.7217 4.91669 12.3003C4.91669 14.312 7.25016 20.8252 9.5969 23.6112C9.52972 23.754 9.46242 23.8944 9.39638 24.0337C8.35686 26.2243 7.37496 28.2937 7.37496 33.196C7.37496 39.6515 10.467 43.0293 13.5207 43.0293C15.4161 43.0293 16.3595 40.8782 16.8133 38.3598C18.4974 41.7771 21.2487 46.2293 25.1029 48.9505C25.6587 49.3394 26.4257 49.2074 26.8171 48.6551C27.2084 48.0994 27.0763 47.3335 26.5217 46.941C20.4095 42.6269 17.1794 32.9126 17.147 32.814C16.9597 32.2404 16.3716 31.885 15.7857 31.9821C15.1892 32.0771 14.7498 32.592 14.7498 33.1958C14.7498 36.5712 14.1064 40.1674 13.5206 40.5708C11.7477 40.5708 9.83312 37.751 9.83312 33.1958C9.83312 28.8469 10.6205 27.188 11.6168 25.0874C11.8029 24.6949 11.9949 24.2915 12.1858 23.8618C12.4055 23.3662 12.2759 22.785 11.8654 22.431C9.97129 20.7999 7.37496 13.9327 7.37496 12.3002C7.37496 11.0422 6.35111 9.57179 4.68137 7.27553C3.86517 6.15315 2.49908 4.27461 2.45827 3.69604C2.45827 2.46683 2.45827 2.46683 3.68748 2.46683C4.68379 2.46683 7.93072 4.26852 10.3675 5.9394C10.5343 6.05348 10.7276 6.1255 10.9304 6.14706C29.6115 8.17321 36.5507 24.0899 40.2777 32.6412C40.9055 34.0818 41.4481 35.3265 41.9378 36.2362C42.0855 36.5112 42.3315 36.7189 42.6257 36.8184C48.7607 38.8975 53.3352 42.7829 55.4791 44.8693C53.3856 45.4562 50.0426 46.3492 47.7355 46.7333C47.3971 46.7898 47.0969 46.9854 46.9097 47.2724C46.7213 47.5593 46.6613 47.911 46.7453 48.2433C47.5003 51.2683 50.398 53.3594 52.9535 55.2032C54.5176 56.3314 55.9939 57.3974 56.767 58.4897C57.007 58.8281 57.3864 59.0083 57.7718 59.0083C58.0177 59.0083 58.2651 58.9351 58.4812 58.7825C59.0344 58.3902 59.1666 57.6232 58.774 57.0686Z" fill="#4E4E4E"/>
<path d="M11.0625 9.83395C11.0625 10.5134 11.6123 11.0632 12.2917 11.0632C12.9699 11.0632 13.5209 11.6141 13.5209 12.2924C13.5209 12.9718 14.0707 13.5216 14.7501 13.5216C15.4295 13.5216 15.9793 12.9718 15.9793 12.2924C15.9793 10.2589 14.3252 8.60486 12.2918 8.60486C11.6123 8.60474 11.0625 9.15452 11.0625 9.83395Z" fill="#4E4E4E"/>
<path d="M58.774 57.0686C57.7634 55.6437 56.1261 54.4613 54.3927 53.2094C52.5261 51.8638 50.6092 50.4796 49.6489 48.8713C53.2919 48.1102 57.9014 46.731 58.1235 46.6649C58.5195 46.5461 58.8305 46.2352 58.9481 45.8391C59.0669 45.4428 58.978 45.0133 58.7115 44.6962C58.4739 44.4142 52.8935 37.8662 43.886 34.6541C43.4887 33.8583 43.0458 32.838 42.5309 31.658C38.9034 23.3351 31.3725 6.06202 11.503 3.73809C9.91967 2.66861 5.7701 0.00866699 3.68748 0.00866699C1.10313 0.00866699 0 1.1118 0 3.69614C0 4.95415 1.02385 6.42453 2.69359 8.72079C3.50979 9.84317 4.87588 11.7217 4.91669 12.3003C4.91669 14.312 7.25016 20.8252 9.5969 23.6112C9.52972 23.754 9.46242 23.8944 9.39638 24.0337C8.35686 26.2243 7.37496 28.2937 7.37496 33.196C7.37496 39.6515 10.467 43.0293 13.5207 43.0293C15.4161 43.0293 16.3595 40.8782 16.8133 38.3598C18.4974 41.7771 21.2487 46.2293 25.1029 48.9505C25.6587 49.3394 26.4257 49.2074 26.8171 48.6551C27.2084 48.0994 27.0763 47.3335 26.5217 46.941C20.4095 42.6269 17.1794 32.9126 17.147 32.814C16.9597 32.2404 16.3716 31.885 15.7857 31.9821C15.1892 32.0771 14.7498 32.592 14.7498 33.1958C14.7498 36.5712 14.1064 40.1674 13.5206 40.5708C11.7477 40.5708 9.83312 37.751 9.83312 33.1958C9.83312 28.8469 10.6205 27.188 11.6168 25.0874C11.8029 24.6949 11.9949 24.2915 12.1858 23.8618C12.4055 23.3662 12.2759 22.785 11.8654 22.431C9.97129 20.7999 7.37496 13.9327 7.37496 12.3002C7.37496 11.0422 6.35111 9.57179 4.68137 7.27553C3.86517 6.15315 2.49908 4.27461 2.45827 3.69604C2.45827 2.46683 2.45827 2.46683 3.68748 2.46683C4.68379 2.46683 7.93072 4.26852 10.3675 5.9394C10.5343 6.05348 10.7276 6.1255 10.9304 6.14706C29.6115 8.17321 36.5507 24.0899 40.2777 32.6412C40.9055 34.0818 41.4481 35.3265 41.9378 36.2362C42.0855 36.5112 42.3315 36.7189 42.6257 36.8184C48.7607 38.8975 53.3352 42.7829 55.4791 44.8693C53.3856 45.4562 50.0426 46.3492 47.7355 46.7333C47.3971 46.7898 47.0969 46.9854 46.9097 47.2724C46.7213 47.5593 46.6613 47.911 46.7453 48.2433C47.5003 51.2683 50.398 53.3594 52.9535 55.2032C54.5176 56.3314 55.9939 57.3974 56.767 58.4897C57.007 58.8281 57.3864 59.0083 57.7718 59.0083C58.0177 59.0083 58.2651 58.9351 58.4812 58.7825C59.0344 58.3902 59.1666 57.6232 58.774 57.0686ZM11.0624 9.84191C11.0624 10.5213 11.6122 11.0711 12.2916 11.0711C12.9698 11.0711 13.5208 11.622 13.5208 12.3003C13.5208 12.9797 14.0706 13.5295 14.75 13.5295C15.4294 13.5295 15.9792 12.9797 15.9792 12.3003C15.9792 10.2669 14.3252 8.61282 12.2917 8.61282C11.6122 8.61271 11.0624 9.16249 11.0624 9.84191Z" fill="url(#paint0_linear)"/>
</g>
<defs>
<linearGradient id="paint0_linear" x1="-5.53721" y1="14.2898" x2="64.2374" y2="46.8206" gradientUnits="userSpaceOnUse">
<stop stop-color="white" stop-opacity="0.62"/>
<stop offset="1" stop-color="white" stop-opacity="0"/>
</linearGradient>
<clipPath id="clip0">
<rect width="59" height="59" fill="white"/>
</clipPath>
</defs>
</svg>
