<svg width="46" height="46" viewBox="0 0 46 46" fill="none" xmlns="http://www.w3.org/2000/svg">
<path d="M33.0625 38.8125H12.9375C9.76158 38.8125 7.1875 36.2384 7.1875 33.0625V12.9375C7.1875 9.76158 9.76158 7.1875 12.9375 7.1875H33.0625C36.2384 7.1875 38.8125 9.76158 38.8125 12.9375V33.0625C38.8125 36.2384 36.2384 38.8125 33.0625 38.8125Z" stroke="#4E4E4E" stroke-width="3" stroke-miterlimit="10" stroke-linejoin="round"/>
<path d="M24.4375 30.1875L20.125 15.8125L15.8125 30.1875" stroke="#4E4E4E" stroke-width="3" stroke-miterlimit="10" stroke-linecap="round" stroke-linejoin="round"/>
<path d="M16.7709 27.3125H23.4792" stroke="#4E4E4E" stroke-width="3" stroke-miterlimit="10" stroke-linecap="round" stroke-linejoin="round"/>
<path d="M29.2292 22.5209V30.1875" stroke="#4E4E4E" stroke-width="3" stroke-miterlimit="10" stroke-linecap="round" stroke-linejoin="round"/>
<path d="M29.2292 19.6458C30.2877 19.6458 31.1458 18.7877 31.1458 17.7292C31.1458 16.6706 30.2877 15.8125 29.2292 15.8125C28.1706 15.8125 27.3125 16.6706 27.3125 17.7292C27.3125 18.7877 28.1706 19.6458 29.2292 19.6458Z" fill="#4E4E4E"/>
<rect width="46" height="46" stroke="black"/>
</svg>
