<svg width="60" height="60" viewBox="0 0 60 60" fill="none" xmlns="http://www.w3.org/2000/svg">
<path d="M6.55782 2.4C6.39114 2.4 6.22628 2.43471 6.07375 2.50194C5.92123 2.56917 5.78438 2.66743 5.67193 2.79046C5.55947 2.9135 5.47389 3.05861 5.42061 3.21655C5.36734 3.3745 5.34755 3.5418 5.36251 3.70781L9.58595 51.0188C9.60737 51.2603 9.70148 51.4897 9.85586 51.6768C10.0102 51.8638 10.2177 51.9996 10.4508 52.0664L29.6625 57.5532C29.8777 57.6146 30.1059 57.6146 30.3211 57.5532L49.5516 52.0664C49.7847 51.9996 49.9921 51.8638 50.1465 51.6768C50.3009 51.4897 50.395 51.2603 50.4164 51.0188L54.6375 3.70781C54.6525 3.5418 54.6327 3.3745 54.5794 3.21655C54.5261 3.05861 54.4405 2.9135 54.3281 2.79046C54.2156 2.66743 54.0788 2.56917 53.9263 2.50194C53.7737 2.43471 53.6089 2.4 53.4422 2.4H6.55782ZM7.87032 4.8H52.1297L48.1008 49.9852L29.993 55.1532L11.9039 49.9852L7.87032 4.8ZM22.8 12C22.4818 12 22.1766 12.1265 21.9515 12.3515C21.7265 12.5766 21.6 12.8818 21.6 13.2V35.5547L14.7211 33.6492C14.5429 33.5998 14.3557 33.5922 14.1741 33.627C13.9925 33.6618 13.8214 33.7381 13.6742 33.85C13.5269 33.9618 13.4075 34.1062 13.3253 34.2718C13.243 34.4374 13.2002 34.6198 13.2 34.8047V40.7391C13.2002 41.0012 13.2862 41.2561 13.4449 41.4648C13.6037 41.6734 13.8263 41.8244 14.0789 41.8946L27.2789 45.5555C27.4571 45.605 27.6443 45.6126 27.8259 45.5777C28.0075 45.5429 28.1786 45.4666 28.3258 45.3548C28.4731 45.2429 28.5925 45.0985 28.6747 44.9329C28.757 44.7673 28.7999 44.5849 28.8 44.4V13.2C28.8 12.8818 28.6735 12.5766 28.4485 12.3515C28.2235 12.1265 27.9183 12 27.6 12H22.8ZM32.4 12C32.0818 12 31.7766 12.1265 31.5515 12.3515C31.3265 12.5766 31.2 12.8818 31.2 13.2V33.6C31.1999 33.7749 31.238 33.9478 31.3117 34.1064C31.3854 34.2651 31.4928 34.4057 31.6266 34.5185C31.7603 34.6312 31.9171 34.7134 32.0859 34.7592C32.2547 34.805 32.4315 34.8133 32.6039 34.7836L39.5016 33.5953L39.3586 35.7211L32.0813 37.7227C31.8282 37.7924 31.605 37.9432 31.4459 38.1519C31.2867 38.3606 31.2003 38.6157 31.2 38.8781V44.4C31.1999 44.5849 31.2425 44.7673 31.3244 44.9329C31.4064 45.0986 31.5255 45.2431 31.6725 45.3552C31.8195 45.4673 31.9904 45.5439 32.1719 45.579C32.3534 45.6142 32.5405 45.6069 32.7188 45.5578L44.7188 42.2578C44.9551 42.1926 45.1658 42.0566 45.3225 41.868C45.4792 41.6795 45.5744 41.4474 45.5953 41.2032L46.8609 26.5031C46.8765 26.3233 46.8512 26.1422 46.787 25.9735C46.7229 25.8047 46.6215 25.6526 46.4904 25.5285C46.3592 25.4044 46.2018 25.3114 46.0298 25.2566C45.8578 25.2017 45.6756 25.1864 45.4969 25.2117L38.4 26.2172V19.2H46.3852C46.6855 19.1999 46.9749 19.0872 47.1962 18.8841C47.4175 18.6811 47.5546 18.4024 47.5805 18.1031L47.9953 13.3031C48.0096 13.1375 47.9893 12.9707 47.9357 12.8133C47.8821 12.6559 47.7964 12.5114 47.684 12.3889C47.5717 12.2664 47.435 12.1685 47.2829 12.1016C47.1307 12.0347 46.9663 12.0001 46.8 12H32.4ZM24 14.4H26.4V42.8227L15.6 39.8274V36.3821L22.4789 38.2899C22.6571 38.3393 22.8443 38.3469 23.0259 38.3121C23.2075 38.2773 23.3786 38.201 23.5258 38.0891C23.6731 37.9773 23.7925 37.8329 23.8747 37.6673C23.957 37.5017 23.9999 37.3193 24 37.1344V14.4ZM33.6 14.4H45.4922L45.2836 16.8H37.2C36.8818 16.8 36.5765 16.9265 36.3515 17.1515C36.1265 17.3766 36 17.6818 36 18V27.6C36 27.7719 36.0369 27.9417 36.1082 28.0981C36.1795 28.2545 36.2836 28.3937 36.4134 28.5063C36.5431 28.619 36.6956 28.7025 36.8604 28.7511C37.0252 28.7998 37.1986 28.8124 37.3688 28.7883L44.3414 27.7992L43.275 40.1649L33.6 42.825V39.7946L40.8188 37.8094C41.0587 37.7434 41.2722 37.6043 41.4297 37.4116C41.5872 37.2189 41.6808 36.9819 41.6977 36.7336L41.9977 32.2336C42.0099 32.0523 41.9808 31.8706 41.9125 31.7022C41.8443 31.5339 41.7387 31.3832 41.6038 31.2615C41.4688 31.1399 41.308 31.0504 41.1334 31C40.9589 30.9496 40.7751 30.9394 40.5961 30.9703L33.6 32.175V14.4Z" fill="#4E4E4E"/>
</svg>
