<svg width="94" height="94" viewBox="0 0 94 94" fill="none" xmlns="http://www.w3.org/2000/svg">
<path d="M34.2709 87.1459C26.7 87.1459 20.5625 81.0085 20.5625 73.4375C20.5625 65.8666 26.7 59.7291 34.2709 59.7291H47.9791V73.4375C47.9791 81.0085 41.8419 87.1459 34.2709 87.1459Z" stroke="#4E4E4E" stroke-width="3" stroke-miterlimit="10" stroke-linecap="round" stroke-linejoin="round"/>
<path d="M63.6457 62.6668C70.6759 62.6668 76.375 56.9677 76.375 49.9375C76.375 42.9075 70.6759 37.2084 63.6457 37.2084C56.6157 37.2084 50.9166 42.9075 50.9166 49.9375C50.9166 56.9677 56.6157 62.6668 63.6457 62.6668Z" fill="#4E4E4E"/>
<path d="M62.6666 34.2709C69.6971 34.2709 75.3957 28.572 75.3957 21.5417C75.3957 14.5112 69.6971 8.8125 62.6666 8.8125H47.9791V34.2709H62.6666Z" stroke="#4E4E4E" stroke-width="3" stroke-miterlimit="10" stroke-linecap="round" stroke-linejoin="round"/>
<path d="M33.2916 8.8125C26.2614 8.8125 20.5625 14.5112 20.5625 21.5417C20.5625 28.572 26.2614 34.2709 33.2916 34.2709H47.9791V8.8125H33.2916Z" stroke="#4E4E4E" stroke-width="3" stroke-miterlimit="10" stroke-linecap="round" stroke-linejoin="round"/>
<path d="M33.2916 34.2709C26.2614 34.2709 20.5625 39.9695 20.5625 47C20.5625 54.0304 26.2614 59.7293 33.2916 59.7293H47.9791V34.2709H33.2916Z" stroke="#4E4E4E" stroke-width="3" stroke-miterlimit="10" stroke-linecap="round" stroke-linejoin="round"/>
</svg>
