<svg width="87" height="87" viewBox="0 0 87 87" fill="none" xmlns="http://www.w3.org/2000/svg">
<path d="M14.1885 10.875L14.4536 13.9685L19.4032 69.9168L19.5801 71.8613L21.4361 72.3915L43.8861 78.667L44.5933 78.8438L45.3888 78.667L67.8387 72.48L69.6948 71.9496L69.8716 70.0051L74.9096 13.9685L75.1748 10.9634H72.0812L17.282 10.875H14.1885ZM20.3755 16.5317L68.9878 16.62L64.3917 67.5304L44.6816 73.0103L24.8832 67.5304L20.3755 16.5317ZM27.1813 25.0167L29.0373 46.141H53.255L52.4596 55.2447L44.6816 57.3659H44.5933L36.8152 55.2447L36.3734 49.4112H29.3025L30.2747 60.6362L44.5933 64.6136H44.6816L59.0002 60.6362L60.9447 39.1586H35.4012L34.7825 31.9992H61.5634L62.1821 25.0167H27.1813Z" fill="#4E4E4E"/>
</svg>
