<svg width="82" height="82" viewBox="0 0 82 82" fill="none" xmlns="http://www.w3.org/2000/svg">
<path d="M58.9375 69.1875H23.0625C17.4011 69.1875 12.8125 64.5989 12.8125 58.9375V23.0625C12.8125 17.4011 17.4011 12.8125 23.0625 12.8125H58.9375C64.5989 12.8125 69.1875 17.4011 69.1875 23.0625V58.9375C69.1875 64.5989 64.5989 69.1875 58.9375 69.1875Z" stroke="#4E4E4E" stroke-width="3" stroke-miterlimit="10" stroke-linejoin="round"/>
<path d="M43.5625 53.8125L35.875 28.1875L28.1875 53.8125" stroke="#4E4E4E" stroke-width="3" stroke-miterlimit="10" stroke-linecap="round" stroke-linejoin="round"/>
<path d="M29.896 48.6875H41.8542" stroke="#4E4E4E" stroke-width="3" stroke-miterlimit="10" stroke-linecap="round" stroke-linejoin="round"/>
<path d="M52.1042 40.1459V53.8125" stroke="#4E4E4E" stroke-width="3" stroke-miterlimit="10" stroke-linecap="round" stroke-linejoin="round"/>
<path d="M52.1042 35.0208C53.9911 35.0208 55.5208 33.4911 55.5208 31.6042C55.5208 29.7172 53.9911 28.1875 52.1042 28.1875C50.2172 28.1875 48.6875 29.7172 48.6875 31.6042C48.6875 33.4911 50.2172 35.0208 52.1042 35.0208Z" fill="#4E4E4E"/>
</svg>
