<svg width="60" height="60" viewBox="0 0 60 60" fill="none" xmlns="http://www.w3.org/2000/svg">
<path d="M30 12.1875C21.8261 12.1875 14.4146 14.1186 8.97583 17.3071C3.53707 20.4956 0 25.0259 0 30.163C0 35.3 3.53707 39.8303 8.97583 43.0188C14.4146 46.2073 21.8261 48.1384 30 48.1384C38.1739 48.1384 45.5854 46.2073 51.0242 43.0188C56.4629 39.8303 60 35.3 60 30.163C60 25.0259 56.4629 20.4956 51.0242 17.3071C45.5854 14.1186 38.1739 12.1875 30 12.1875ZM30 14.0625C37.8769 14.0625 44.9959 15.9459 50.0757 18.924C55.1555 21.902 58.125 25.8901 58.125 30.163C58.125 34.4358 55.1555 38.4239 50.0757 41.402C44.9959 44.38 37.8769 46.2634 30 46.2634C22.1231 46.2634 15.0041 44.38 9.92432 41.402C4.84452 38.4239 1.875 34.4358 1.875 30.163C1.875 25.8901 4.84452 21.902 9.92432 18.924C15.0041 15.9459 22.1231 14.0625 30 14.0625ZM24.3896 17.1844C24.3362 17.1848 24.2829 17.1897 24.2303 17.1991C22.8114 17.4198 21.4937 17.6879 20.2698 17.9919C20.146 18.0174 20.0287 18.0677 19.9249 18.1396C19.8211 18.2116 19.7329 18.3038 19.6655 18.4107C19.5982 18.5176 19.5532 18.637 19.5332 18.7617C19.5132 18.8865 19.5186 19.014 19.5491 19.1366C19.5796 19.2592 19.6346 19.3743 19.7107 19.4752C19.7868 19.576 19.8825 19.6604 19.992 19.7233C20.1016 19.7862 20.2227 19.8263 20.3482 19.8413C20.4736 19.8562 20.6008 19.8456 20.722 19.8102C21.8906 19.5199 23.1542 19.2627 24.5197 19.0503C24.7543 19.0169 24.9677 18.8959 25.1167 18.7116C25.2657 18.5273 25.3394 18.2933 25.323 18.0569C25.3065 17.8204 25.2011 17.599 25.0279 17.4371C24.8547 17.2752 24.6267 17.185 24.3896 17.1844ZM16.7889 19.0906C16.6731 19.0902 16.5583 19.1113 16.4502 19.1528C12.3984 20.6344 9.73446 22.4906 8.08044 23.9978C6.42643 25.505 5.74036 26.7389 5.74036 26.7389C5.67449 26.8473 5.63129 26.9678 5.61337 27.0934C5.59545 27.2189 5.60318 27.3468 5.63609 27.4692C5.66901 27.5917 5.72642 27.7062 5.80486 27.8059C5.8833 27.9055 5.98114 27.9882 6.09246 28.0489C6.20377 28.1097 6.32625 28.1472 6.45249 28.1592C6.57872 28.1713 6.70609 28.1576 6.82688 28.119C6.94768 28.0804 7.05939 28.0177 7.15526 27.9347C7.25113 27.8517 7.32916 27.7501 7.38464 27.6361C7.38464 27.6361 7.86289 26.7335 9.34387 25.3839C10.8249 24.0344 13.2678 22.3137 17.0947 20.9143C17.3043 20.8419 17.4813 20.6975 17.5945 20.5069C17.7077 20.3163 17.7497 20.0918 17.7131 19.8731C17.6764 19.6545 17.5635 19.4559 17.3943 19.3126C17.2251 19.1694 17.0106 19.0907 16.7889 19.0906ZM27.7881 19.7296L24.6204 34.8926H27.9364L29.5367 27.3102H32.1863C33.0319 27.3102 33.5901 27.4519 33.8507 27.7313C34.1095 28.0135 34.1673 28.5437 34.0173 29.3115L32.807 34.8926H36.1761L37.4872 28.8538C37.7684 27.4063 37.5549 26.3447 36.8536 25.7007C36.1393 25.0463 34.8807 24.7833 33.0048 24.7833H30.0494L31.1041 19.7296H27.7881ZM13.2477 24.7833L10.6842 38.6829H14.0277L14.6942 34.8926H16.7743C21.129 34.8926 23.4982 33.8834 24.3842 30.1465C25.1463 26.9355 23.1978 24.7833 19.986 24.7833H13.2477ZM39.7833 24.7833L37.2198 38.6829H40.5634L41.2299 34.8926H43.3099C47.6646 34.8926 50.0339 33.8834 50.9198 30.1465C51.682 26.9355 49.7335 24.7833 46.5216 24.7833H39.7833ZM16.1188 27.3102H18.7244C20.8825 27.3102 21.3363 28.2836 21.2238 29.3665C20.9341 32.1536 19.1958 32.3639 17.3254 32.3639H15.1648L16.1188 27.3102ZM42.6544 27.3102H45.26C47.4181 27.3102 47.8719 28.2836 47.7594 29.3665C47.4697 32.1536 45.7305 32.3639 43.8611 32.3639H41.7004L42.6544 27.3102ZM54.0271 44.0332C53.8566 44.0302 53.6885 44.0738 53.5409 44.1592C53.3933 44.2447 53.2718 44.3688 53.1895 44.5181C53.1072 44.6675 53.0672 44.8365 53.0738 45.0069C53.0804 45.1773 53.1333 45.3427 53.2269 45.4852L54.234 47.0673C54.3003 47.1711 54.3863 47.2609 54.4873 47.3316C54.5882 47.4022 54.7021 47.4522 54.8224 47.4788C54.9427 47.5055 55.0671 47.5081 55.1884 47.4867C55.3097 47.4652 55.4256 47.4201 55.5295 47.3538C55.6334 47.2876 55.7232 47.2015 55.7938 47.1006C55.8644 46.9996 55.9145 46.8857 55.9411 46.7654C55.9677 46.6451 55.9703 46.5208 55.9489 46.3995C55.9274 46.2781 55.8823 46.1622 55.816 46.0583L54.8071 44.4781C54.7247 44.3446 54.6101 44.234 54.4738 44.1562C54.3376 44.0785 54.184 44.0362 54.0271 44.0332ZM50.1837 46.1096C50.0294 46.1184 49.8796 46.1652 49.7477 46.2459C49.6159 46.3265 49.506 46.4385 49.4279 46.5719C49.3498 46.7053 49.3059 46.8559 49.3 47.0104C49.2942 47.1649 49.3267 47.3184 49.3945 47.4573L50.1947 49.1547C50.3011 49.3795 50.4924 49.5529 50.7266 49.6367C50.9608 49.7205 51.2186 49.7078 51.4435 49.6014C51.6683 49.4951 51.8417 49.3038 51.9255 49.0696C52.0093 48.8354 51.9966 48.5775 51.8903 48.3527L51.0901 46.6571C51.0118 46.4851 50.8833 46.3409 50.7216 46.2432C50.5598 46.1455 50.3724 46.0989 50.1837 46.1096ZM46.1829 47.7319C46.0362 47.7389 45.8932 47.7803 45.7654 47.8527C45.6376 47.925 45.5286 48.0264 45.4472 48.1486C45.3658 48.2709 45.3142 48.4105 45.2967 48.5563C45.2791 48.7021 45.296 48.85 45.3461 48.988L45.9595 50.7605C45.9997 50.8769 46.0626 50.9842 46.1443 51.0763C46.2261 51.1684 46.3251 51.2435 46.4359 51.2973C46.5467 51.3511 46.667 51.3826 46.7899 51.3899C46.9128 51.3973 47.036 51.3803 47.1524 51.34C47.2688 51.2998 47.3761 51.2369 47.4682 51.1552C47.5603 51.0734 47.6354 50.9744 47.6892 50.8636C47.743 50.7528 47.7745 50.6325 47.7818 50.5096C47.7892 50.3867 47.7722 50.2635 47.7319 50.1471L47.1185 48.3746C47.0543 48.1799 46.928 48.0117 46.759 47.8956C46.59 47.7795 46.3876 47.722 46.1829 47.7319ZM42.019 48.9514C41.8804 48.9585 41.7451 48.9963 41.6228 49.0621C41.5005 49.1278 41.3944 49.2199 41.312 49.3317C41.2297 49.4435 41.1732 49.5721 41.1467 49.7084C41.1201 49.8447 41.1241 49.9851 41.1584 50.1196L41.5979 51.9434C41.6564 52.1852 41.8086 52.3939 42.021 52.5235C42.2334 52.6532 42.4886 52.6931 42.7304 52.6346C42.9722 52.5761 43.1809 52.4239 43.3106 52.2115C43.4402 51.9991 43.4801 51.7439 43.4216 51.5021L42.9822 49.6802C42.9333 49.4647 42.8098 49.2734 42.6336 49.1401C42.4574 49.0067 42.2397 48.9399 42.019 48.9514ZM37.8406 49.7809C37.8088 49.7799 37.777 49.7805 37.7454 49.7827C37.6146 49.791 37.4871 49.8265 37.3709 49.8871C37.2548 49.9477 37.1526 50.0319 37.071 50.1344C36.9894 50.2369 36.9302 50.3553 36.8972 50.4821C36.8641 50.6088 36.858 50.7411 36.8793 50.8704L37.1558 52.7252C37.1739 52.847 37.2158 52.9641 37.2792 53.0697C37.3426 53.1753 37.4261 53.2674 37.5251 53.3407C37.624 53.414 37.7365 53.4671 37.856 53.497C37.9755 53.5268 38.0997 53.5329 38.2215 53.5147C38.3433 53.4965 38.4603 53.4546 38.5659 53.3912C38.6715 53.3278 38.7636 53.2442 38.8369 53.1452C38.9101 53.0462 38.9632 52.9337 38.993 52.8142C39.0228 52.6947 39.0288 52.5705 39.0106 52.4487L38.7341 50.5939C38.7049 50.3748 38.5992 50.173 38.4357 50.0243C38.2722 49.8755 38.0615 49.7893 37.8406 49.7809ZM33.4991 50.2368C33.3682 50.2341 33.2382 50.2589 33.1175 50.3095C32.9967 50.3601 32.8879 50.4354 32.798 50.5307C32.7082 50.6259 32.6392 50.7389 32.5957 50.8623C32.5521 50.9858 32.5349 51.117 32.5452 51.2476L32.666 53.1189C32.6739 53.2418 32.706 53.3619 32.7603 53.4724C32.8147 53.5829 32.8903 53.6816 32.9828 53.7629C33.0753 53.8442 33.1829 53.9064 33.2994 53.9461C33.416 53.9858 33.5392 54.0022 33.6621 53.9942C33.785 53.9863 33.9051 53.9542 34.0156 53.8999C34.1261 53.8455 34.2248 53.7699 34.3061 53.6774C34.3873 53.5849 34.4496 53.4773 34.4893 53.3607C34.529 53.2442 34.5453 53.1209 34.5374 52.998L34.4147 51.1267C34.4027 50.8902 34.3016 50.6669 34.1318 50.5019C33.9619 50.3368 33.7359 50.2421 33.4991 50.2368Z" fill="#4E4E4E"/>
</svg>
