<svg width="74" height="74" viewBox="0 0 74 74" fill="none" xmlns="http://www.w3.org/2000/svg">
<path d="M42.3959 14.6458H59.3543C62.7597 14.6458 65.5208 17.4069 65.5208 20.8125V54.729C65.5208 58.1347 62.7597 60.8958 59.3543 60.8958H42.3959" stroke="#4E4E4E" stroke-width="3" stroke-miterlimit="10" stroke-linejoin="round"/>
<path d="M40.8541 62.3759C40.8541 64.3214 39.0734 65.7814 37.1664 65.3991L13.7393 60.714C11.5763 60.2823 10.0208 58.3844 10.0208 56.18V17.8202C10.0208 15.6156 11.5763 13.7178 13.7393 13.2846L37.1664 8.59949C39.0734 8.2187 40.8541 9.67866 40.8541 11.6242V62.3759Z" stroke="#4E4E4E" stroke-width="3" stroke-miterlimit="10" stroke-linejoin="round"/>
<path d="M42.3959 50.1042H56.2709" stroke="#4E4E4E" stroke-width="3" stroke-miterlimit="10" stroke-linecap="round" stroke-linejoin="round"/>
<path d="M20.8124 47.0208V28.5208H26.2083C29.1883 28.5208 31.6042 30.9364 31.6042 33.9164C31.6042 36.8967 29.1883 39.3123 26.2083 39.3123H20.8124" stroke="#4E4E4E" stroke-width="3" stroke-miterlimit="10" stroke-linecap="round" stroke-linejoin="round"/>
<path d="M47.7917 33.9167H55.5C55.5 38.1454 52.0206 41.625 47.7917 41.625C43.5629 41.625 40.0835 38.1454 40.0835 33.9167C40.0835 29.6879 43.5629 26.2083 47.7917 26.2083V33.9167Z" fill="#4E4E4E"/>
<path d="M50.875 30.8333V23.125C52.9192 23.125 54.8802 23.9374 56.3263 25.382C57.7725 26.8266 58.5833 28.7891 58.5833 30.8333H50.875Z" fill="#4E4E4E"/>
</svg>
