<svg width="70" height="70" viewBox="0 0 70 70" fill="none" xmlns="http://www.w3.org/2000/svg">
<path d="M31.7917 6.12503C18.375 7.58338 7.58336 18.375 6.12502 31.5C4.66669 45.2083 12.5417 57.4583 24.5 62.125C25.375 62.4167 26.25 61.8333 26.25 60.6667V56C26.25 56 25.0833 56.2917 23.625 56.2917C19.5417 56.2917 17.7917 52.7917 17.5 50.75C17.2084 49.5833 16.625 48.7083 15.75 47.8333C14.875 47.5417 14.5834 47.5417 14.5834 47.25C14.5834 46.6667 15.4584 46.6667 15.75 46.6667C17.5 46.6667 18.9583 48.7083 19.5417 49.5833C21 51.9167 22.75 52.5 23.625 52.5C24.7917 52.5 25.6667 52.2083 26.25 51.9167C26.5417 49.875 27.4167 47.8333 29.1667 46.6667C22.4583 45.2083 17.5 41.4167 17.5 35C17.5 31.7917 18.9583 28.5833 21 26.25C20.7083 25.6667 20.4167 24.2083 20.4167 22.1668C20.4167 21 20.4167 19.25 21.2917 17.5C21.2917 17.5 25.375 17.5 29.4583 21.2918C30.9167 20.7083 32.9583 20.4168 35 20.4168C37.0417 20.4168 39.0833 20.7083 40.8333 21.2918C44.625 17.5 49 17.5 49 17.5C49.5833 19.25 49.5833 21 49.5833 22.1668C49.5833 24.5 49.2917 25.6667 49 26.25C51.0417 28.5833 52.5 31.5 52.5 35C52.5 41.4167 47.5417 45.2083 40.8333 46.6667C42.5833 48.125 43.75 50.75 43.75 53.375V60.9583C43.75 61.8333 44.625 62.7083 45.7917 62.4167C56.5833 58.0417 64.1667 47.5417 64.1667 35.2917C64.1667 17.7918 49.2917 4.08338 31.7917 6.12503Z" fill="#4E4E4E"/>
</svg>
