<svg width="73" height="73" viewBox="0 0 73 73" fill="none" xmlns="http://www.w3.org/2000/svg">
<path d="M36.5 7.30005C20.3743 7.30005 7.29999 20.3744 7.29999 36.5001C7.29999 52.6258 20.3743 65.7001 36.5 65.7001C52.6257 65.7001 65.7 52.6258 65.7 36.5001C65.7 20.3744 52.6257 7.30005 36.5 7.30005ZM58.6044 26.3847C58.6117 26.6183 58.6482 26.8179 58.6482 27.0612C58.6482 29.5992 58.1713 32.4559 56.7429 36.0329L49.4745 57.0496C47.9318 58.0278 46.2747 58.8308 44.5251 59.444L36.9429 38.6852L29.6648 59.8358C28.1074 59.3783 26.6158 58.7724 25.2045 58.0302L13.9843 27.3045C14.6438 25.6961 15.4662 24.1753 16.4371 22.7591C16.6853 22.7639 16.9652 22.7711 17.1842 22.7711C19.8025 22.7711 23.8588 22.4525 23.8588 22.4525C25.2118 22.3769 25.3675 24.3578 24.0194 24.5184C24.0194 24.5184 22.6616 24.6764 21.153 24.7567L30.2731 51.8909L35.753 35.4489L31.8548 24.752C30.5018 24.6764 29.2268 24.5184 29.2268 24.5184C27.8738 24.4381 28.0369 22.3722 29.3849 22.4525C29.3849 22.4525 33.5216 22.7711 35.9793 22.7711C38.5975 22.7711 42.6539 22.4525 42.6539 22.4525C44.0068 22.3769 44.1626 24.3578 42.8145 24.5184C42.8145 24.5184 41.4543 24.6764 39.948 24.7567L49 51.6841L51.5015 43.328C52.7717 40.0747 53.4068 37.381 53.4068 35.2323C53.4068 32.1371 52.2972 29.9934 51.3409 28.3265C50.0731 26.2606 48.8784 24.5159 48.8784 22.45C48.8784 20.384 50.2897 18.4594 52.3605 18.0845C54.9982 20.3621 57.1347 23.1872 58.6044 26.3847Z" fill="#4E4E4E"/>
</svg>
