<svg width="41" height="41" viewBox="0 0 41 41" fill="none" xmlns="http://www.w3.org/2000/svg">
<path d="M23.4896 8.11459H32.8855C34.7723 8.11459 36.3021 9.64441 36.3021 11.5313V30.3229C36.3021 32.2098 34.7723 33.7396 32.8855 33.7396H23.4896" stroke="#4E4E4E" stroke-width="3" stroke-miterlimit="10" stroke-linejoin="round"/>
<path d="M22.6354 34.5596C22.6354 35.6375 21.6488 36.4464 20.5922 36.2346L7.61231 33.6388C6.41392 33.3996 5.55206 32.3481 5.55206 31.1267V9.87331C5.55206 8.65185 6.41392 7.60037 7.61231 7.36035L20.5922 4.76454C21.6488 4.55356 22.6354 5.36246 22.6354 6.44042V34.5596Z" stroke="#4E4E4E" stroke-width="3" stroke-miterlimit="10" stroke-linejoin="round"/>
<path d="M23.4896 27.7604H31.1771" stroke="#4E4E4E" stroke-width="3" stroke-miterlimit="10" stroke-linecap="round" stroke-linejoin="round"/>
<path d="M11.5312 26.0521V15.8021H14.5208C16.1719 15.8021 17.5104 17.1405 17.5104 18.7916C17.5104 20.4428 16.1719 21.7812 14.5208 21.7812H11.5312" stroke="#4E4E4E" stroke-width="3" stroke-miterlimit="10" stroke-linecap="round" stroke-linejoin="round"/>
<path d="M26.4792 18.7917H30.75C30.75 21.1346 28.8222 23.0625 26.4792 23.0625C24.1362 23.0625 22.2084 21.1346 22.2084 18.7917C22.2084 16.4487 24.1362 14.5208 26.4792 14.5208V18.7917Z" fill="#4E4E4E"/>
<path d="M28.1875 17.0833V12.8125C29.3201 12.8125 30.4066 13.2626 31.2078 14.063C32.0091 14.8634 32.4583 15.9507 32.4583 17.0833H28.1875Z" fill="#4E4E4E"/>
<rect width="41" height="41" stroke="#6B9080"/>
</svg>
