<svg width="72" height="72" viewBox="0 0 72 72" fill="none" xmlns="http://www.w3.org/2000/svg">
<path d="M7.86938 2.88C7.66937 2.88 7.47153 2.92166 7.2885 3.00233C7.10547 3.08301 6.94125 3.20092 6.80631 3.34856C6.67136 3.49621 6.56867 3.67034 6.50473 3.85987C6.44081 4.04941 6.41706 4.25017 6.43501 4.44938L11.5031 61.2226C11.5288 61.5124 11.6418 61.7877 11.827 62.0122C12.0122 62.2366 12.2612 62.3995 12.541 62.4797L35.595 69.0639C35.8532 69.1375 36.1271 69.1375 36.3853 69.0639L59.4619 62.4797C59.7416 62.3995 59.9905 62.2366 60.1758 62.0122C60.3611 61.7877 60.474 61.5124 60.4997 61.2226L65.565 4.44938C65.583 4.25017 65.5592 4.04941 65.4953 3.85987C65.4313 3.67034 65.3286 3.49621 65.1937 3.34856C65.0587 3.20092 64.8946 3.08301 64.7116 3.00233C64.5284 2.92166 64.3307 2.88 64.1306 2.88H7.86938ZM9.44438 5.76001H62.5556L57.721 59.9823L35.9916 66.1839L14.2847 59.9823L9.44438 5.76001ZM27.36 14.4C26.9782 14.4 26.6119 14.5518 26.3418 14.8218C26.0718 15.0919 25.92 15.4582 25.92 15.84V42.6657L17.6653 40.3791C17.4515 40.3198 17.2268 40.3107 17.0089 40.3524C16.791 40.3942 16.5857 40.4857 16.409 40.62C16.2323 40.7542 16.089 40.9275 15.9904 41.1262C15.8916 41.3249 15.8402 41.5438 15.84 41.7657V48.8869C15.8402 49.2015 15.9434 49.5073 16.1339 49.7578C16.3244 50.0081 16.5916 50.1893 16.8947 50.2735L32.7347 54.6666C32.9485 54.726 33.1732 54.7351 33.3911 54.6933C33.609 54.6515 33.8143 54.5599 33.991 54.4258C34.1677 54.2915 34.311 54.1182 34.4096 53.9195C34.5084 53.7208 34.5599 53.5019 34.56 53.28V15.84C34.56 15.4582 34.4082 15.0919 34.1382 14.8218C33.8682 14.5518 33.502 14.4 33.12 14.4H27.36ZM38.88 14.4C38.4982 14.4 38.1319 14.5518 37.8618 14.8218C37.5918 15.0919 37.44 15.4582 37.44 15.84V40.32C37.4399 40.5299 37.4856 40.7374 37.574 40.9277C37.6625 41.1181 37.7914 41.2869 37.9519 41.4222C38.1124 41.5575 38.3005 41.6561 38.5031 41.7111C38.7056 41.766 38.9178 41.776 39.1247 41.7403L47.4019 40.3144L47.2303 42.8653L38.4976 45.2673C38.1938 45.3509 37.926 45.5319 37.7351 45.7823C37.544 46.0327 37.4404 46.3389 37.44 46.6537V53.28C37.4399 53.5019 37.491 53.7208 37.5893 53.9195C37.6877 54.1183 37.8306 54.2917 38.007 54.4263C38.1834 54.5608 38.3885 54.6527 38.6063 54.6948C38.8241 54.7371 39.0486 54.7283 39.2626 54.6694L53.6626 50.7094C53.9461 50.6311 54.199 50.4679 54.387 50.2416C54.575 50.0154 54.6893 49.7369 54.7144 49.4439L56.2331 31.8037C56.2518 31.588 56.2214 31.3707 56.1444 31.1682C56.0675 30.9657 55.9458 30.7831 55.7885 30.6342C55.631 30.4853 55.4422 30.3737 55.2358 30.3079C55.0294 30.2421 54.8107 30.2237 54.5963 30.2541L46.08 31.4607V23.04H55.6622C56.0226 23.0399 56.3699 22.9047 56.6354 22.6609C56.901 22.4173 57.0655 22.0829 57.0966 21.7237L57.5944 15.9637C57.6115 15.765 57.5872 15.5648 57.5228 15.376C57.4585 15.1871 57.3557 15.0137 57.2208 14.8667C57.086 14.7197 56.922 14.6022 56.7395 14.5219C56.5568 14.4416 56.3596 14.4001 56.16 14.4H38.88ZM28.8 17.28H31.68V51.3873L18.72 47.7929V43.6585L26.9747 45.9479C27.1885 46.0072 27.4132 46.0163 27.6311 45.9745C27.849 45.9328 28.0543 45.8412 28.231 45.7069C28.4077 45.5728 28.551 45.3995 28.6496 45.2008C28.7484 45.0021 28.7999 44.7832 28.8 44.5613V17.28ZM40.32 17.28H54.5906L54.3403 20.16H44.64C44.2582 20.16 43.8918 20.3118 43.6218 20.5818C43.3518 20.8519 43.2 21.2182 43.2 21.6V33.12C43.2 33.3263 43.2443 33.5301 43.3298 33.7177C43.4154 33.9054 43.5403 34.0725 43.6961 34.2076C43.8517 34.3428 44.0347 34.443 44.2325 34.5013C44.4302 34.5598 44.6383 34.5749 44.8426 34.546L53.2097 33.3591L51.93 48.1979L40.32 51.39V47.7535L48.9826 45.3713C49.2704 45.2921 49.5266 45.1252 49.7156 44.8939C49.9046 44.6627 50.017 44.3783 50.0372 44.0803L50.3972 38.6803C50.4119 38.4628 50.377 38.2447 50.295 38.0427C50.2132 37.8407 50.0864 37.6599 49.9246 37.5138C49.7626 37.3679 49.5696 37.2605 49.3601 37.2C49.1507 37.1395 48.9301 37.1273 48.7153 37.1644L40.32 38.61V17.28Z" fill="#4E4E4E"/>
</svg>
