<svg width="43" height="43" viewBox="0 0 43 43" fill="none" xmlns="http://www.w3.org/2000/svg">
<path d="M21.5 4.29999C12.0013 4.29999 4.29999 12.0013 4.29999 21.5C4.29999 30.9987 12.0013 38.7 21.5 38.7C30.9987 38.7 38.7 30.9987 38.7 21.5C38.7 12.0013 30.9987 4.29999 21.5 4.29999ZM34.5204 15.5416C34.5247 15.6792 34.5462 15.7968 34.5462 15.9401C34.5462 17.4351 34.2653 19.1178 33.4239 21.2248L29.1425 33.6045C28.2338 34.1807 27.2577 34.6537 26.2271 35.0149L21.7609 22.7871L17.4738 35.2457C16.5564 34.9762 15.6778 34.6193 14.8465 34.1821L8.23735 16.0834C8.62579 15.136 9.11025 14.2402 9.68215 13.406C9.82835 13.4088 9.99319 13.4131 10.1222 13.4131C11.6645 13.4131 14.0538 13.2254 14.0538 13.2254C14.8508 13.1809 14.9425 14.3477 14.1484 14.4423C14.1484 14.4423 13.3486 14.5354 12.46 14.5827L17.8321 30.5658L21.06 20.8808L18.7638 14.5799C17.9668 14.5354 17.2158 14.4423 17.2158 14.4423C16.4188 14.395 16.5149 13.1781 17.3089 13.2254C17.3089 13.2254 19.7456 13.4131 21.1933 13.4131C22.7355 13.4131 25.1249 13.2254 25.1249 13.2254C25.9218 13.1809 26.0136 14.3477 25.2195 14.4423C25.2195 14.4423 24.4183 14.5354 23.531 14.5827L28.863 30.444L30.3365 25.5219C31.0847 23.6056 31.4588 22.0189 31.4588 20.7532C31.4588 18.93 30.8052 17.6673 30.2419 16.6854C29.4951 15.4685 28.7914 14.4408 28.7914 13.2239C28.7914 12.007 29.6227 10.8733 30.8425 10.6525C32.3962 11.9941 33.6547 13.6582 34.5204 15.5416Z" fill="#4E4E4E"/>
</svg>
