<svg width="36" height="36" viewBox="0 0 36 36" fill="none" xmlns="http://www.w3.org/2000/svg">
<g clip-path="url(#clip0)">
<path d="M35.8509 15.9047L22.2553 2.30906C21.6787 1.72969 20.9193 1.44 20.16 1.44C19.4006 1.44 18.6412 1.72969 18.0647 2.30906L15.3759 4.99781L18.7031 8.325C19.8084 7.67531 21.2484 7.81594 22.1962 8.76375C23.144 9.71156 23.2818 11.1516 22.6322 12.2541L25.9031 15.525C27.0084 14.8753 28.4484 15.0159 29.3962 15.9638C30.5212 17.0888 30.5212 18.9113 29.3962 20.0363C28.2712 21.1613 26.4487 21.1613 25.3237 20.0363C24.3759 19.0884 24.2353 17.6484 24.885 16.5431L21.614 13.2722C21.3806 13.41 21.1359 13.5113 20.88 13.5759V22.4213C22.1203 22.7419 23.04 23.8584 23.04 25.2C23.04 26.7919 21.7518 28.08 20.16 28.08C18.5681 28.08 17.28 26.7919 17.28 25.2C17.28 23.8584 18.1997 22.7419 19.44 22.4213V13.5759C18.959 13.4522 18.5006 13.2131 18.1237 12.8363C17.1759 11.8884 17.0381 10.4484 17.6878 9.34594L14.3578 6.01594L4.46904 15.9047C3.31029 17.0606 3.31029 18.9394 4.46904 20.0953L18.0647 33.6909C18.6412 34.2703 19.4006 34.56 20.16 34.56C20.9193 34.56 21.6787 34.2703 22.2553 33.6909L35.8509 20.0953C37.0097 18.9394 37.0097 17.0606 35.8509 15.9047Z" fill="#4E4E4E"/>
</g>
<defs>
<clipPath id="clip0">
<rect width="36" height="36" fill="white"/>
</clipPath>
</defs>
</svg>
