<svg width="74" height="74" viewBox="0 0 74 74" fill="none" xmlns="http://www.w3.org/2000/svg">
<path d="M40.8541 14.6458H57.8125C61.218 14.6458 63.9791 17.4069 63.9791 20.8124V54.729C63.9791 58.1347 61.218 60.8958 57.8125 60.8958H40.8541" stroke="#4E4E4E" stroke-width="3" stroke-miterlimit="10" stroke-linejoin="round"/>
<path d="M40.8541 62.376C40.8541 64.3214 39.0735 65.7814 37.1665 65.3991L13.7394 60.7139C11.5764 60.2823 10.0209 58.3846 10.0209 56.1799V17.8202C10.0209 15.6156 11.5764 13.7178 13.7394 13.2846L37.1665 8.59949C39.0735 8.21869 40.8541 9.67865 40.8541 11.6242V62.376Z" stroke="#4E4E4E" stroke-width="3" stroke-miterlimit="10" stroke-linejoin="round"/>
<path d="M48.5625 25.4375H54.7291" stroke="#4E4E4E" stroke-width="3" stroke-miterlimit="10" stroke-linecap="round" stroke-linejoin="round"/>
<path d="M48.5625 37.771H54.7291" stroke="#4E4E4E" stroke-width="3" stroke-miterlimit="10" stroke-linecap="round" stroke-linejoin="round"/>
<path d="M48.5625 50.104H54.7291" stroke="#4E4E4E" stroke-width="3" stroke-miterlimit="10" stroke-linecap="round" stroke-linejoin="round"/>
<path d="M30.7716 48.0353C30.0085 48.0353 29.2609 47.656 28.8184 46.9638L18.0267 30.0055C17.3422 28.9279 17.6598 27.4988 18.7359 26.8128C19.812 26.1298 21.2426 26.4428 21.9286 27.5219L32.7204 44.4801C33.4049 45.5578 33.0872 46.9869 32.0111 47.6731C31.6258 47.9197 31.1971 48.0353 30.7716 48.0353Z" fill="#4E4E4E"/>
<path d="M19.9769 48.0352C19.5514 48.0352 19.1212 47.9181 18.7359 47.6744C17.6598 46.9884 17.3422 45.5593 18.0267 44.4817L28.8184 27.5233C29.506 26.4442 30.9366 26.1297 32.0111 26.8142C33.0872 27.5002 33.4049 28.9293 32.7204 30.0069L21.9286 46.9653C21.4878 47.6574 20.74 48.0352 19.9769 48.0352Z" fill="#4E4E4E"/>
</svg>
