<svg width="60" height="60" viewBox="0 0 60 60" fill="none" xmlns="http://www.w3.org/2000/svg">
<path d="M9.78516 7.5L9.96802 9.63345L13.3815 48.2185L13.5035 49.5595L14.7835 49.9252L30.2663 54.2531L30.754 54.375L31.3026 54.2531L46.7853 49.9862L48.0654 49.6204L48.1873 48.2794L51.6618 9.63345L51.8447 7.56096H49.7112L11.9186 7.5H9.78516ZM14.0521 11.4012L47.5778 11.4621L44.4081 46.5727L30.8149 50.3519L17.1608 46.5727L14.0521 11.4012ZM18.7457 17.2529L20.0257 31.8214H36.7276L36.179 38.0998L30.8149 39.5627H30.754L25.3898 38.0998L25.0851 34.0767H20.2086L20.8791 41.8181L30.754 44.5611H30.8149L40.6898 41.8181L42.0308 27.0059H24.4146L23.9879 22.0684H42.4575L42.8842 17.2529H18.7457Z" fill="#4E4E4E"/>
</svg>
